<svg width="21" height="20" viewBox="0 0 21 20" fill="none" xmlns="http://www.w3.org/2000/svg">
<path d="M16.6414 8.33325H3.30811V14.9999C3.30811 17.4999 4.14144 18.3333 6.64144 18.3333H13.3081C15.8081 18.3333 16.6414 17.4999 16.6414 14.9999V8.33325Z" stroke="#1B3F67" stroke-width="1.5" stroke-miterlimit="10" stroke-linecap="round" stroke-linejoin="round"/>
<path d="M17.9168 5.83341V6.66675C17.9168 7.58341 17.4752 8.33341 16.2502 8.33341H3.75016C2.47516 8.33341 2.0835 7.58341 2.0835 6.66675V5.83341C2.0835 4.91675 2.47516 4.16675 3.75016 4.16675H16.2502C17.4752 4.16675 17.9168 4.91675 17.9168 5.83341Z" stroke="#1B3F67" stroke-width="1.5" stroke-miterlimit="10" stroke-linecap="round" stroke-linejoin="round"/>
<path d="M9.69998 4.16662H5.09998C4.81665 3.85828 4.82498 3.38328 5.12498 3.08328L6.30832 1.89995C6.61665 1.59162 7.12498 1.59162 7.43332 1.89995L9.69998 4.16662Z" stroke="#1B3F67" stroke-width="1.5" stroke-miterlimit="10" stroke-linecap="round" stroke-linejoin="round"/>
<path d="M14.8915 4.16662H10.2915L12.5582 1.89995C12.8665 1.59162 13.3748 1.59162 13.6832 1.89995L14.8665 3.08328C15.1665 3.38328 15.1748 3.85828 14.8915 4.16662Z" stroke="#1B3F67" stroke-width="1.5" stroke-miterlimit="10" stroke-linecap="round" stroke-linejoin="round"/>
<path d="M7.4502 8.33325V12.6166C7.4502 13.2833 8.18353 13.6749 8.74186 13.3166L9.5252 12.7999C9.80853 12.6166 10.1669 12.6166 10.4419 12.7999L11.1835 13.2999C11.7335 13.6666 12.4752 13.2749 12.4752 12.6083V8.33325H7.4502Z" stroke="#1B3F67" stroke-width="1.5" stroke-miterlimit="10" stroke-linecap="round" stroke-linejoin="round"/>
<circle cx="17.5" cy="3.5" r="3" fill="#FF5050" stroke="white"/>
</svg>
