<svg width="13" height="13" viewBox="0 0 13 13" fill="none" xmlns="http://www.w3.org/2000/svg">
<path fill-rule="evenodd" clip-rule="evenodd" d="M11.5424 5.07961H8.85865C8.92901 4.19311 8.92901 3.30238 8.85865 2.41589C8.77432 1.79429 8.49908 1.21421 8.07093 0.755753C7.92257 0.6566 7.74397 0.612984 7.56658 0.632471C7.3892 0.651959 7.22438 0.733361 7.10108 0.86236C7.10108 0.86236 7.13568 2.30024 7.13568 2.62899C6.95503 3.22379 6.62415 3.76205 6.17494 4.19174C5.97733 4.37387 4.67506 4.88473 4.38547 5.07961V11.2948L9.93141 11.2857C10.9614 11.2857 11.2819 10.0427 10.618 9.92706L10.6663 9.78499C11.3265 9.71396 11.862 8.61295 11.0597 8.38165L11.108 8.24869C11.7345 8.17766 12.3364 7.10315 11.5023 6.83723L11.5496 6.70428C12.3847 6.56222 12.7217 5.22991 11.852 5.22991L11.5424 5.07961ZM0.807495 5.96748H3.4912V12.1828H0.807495V5.96748Z" fill="#4B4F56"/>
</svg>
